0
SECTION
2
HEADER
9
$INSUNITS
70
4
9
$ACADVER
1
AC1014
9
$HANDSEED
5
FFFF
0
ENDSEC
0
SECTION
2
TABLES
0
TABLE
2
VPORT
5
8
100
AcDbSymbolTable
0
ENDTAB
0
TABLE
2
LTYPE
5
5
100
AcDbSymbolTable
0
LTYPE
5
14
100
AcDbSymbolTableRecord
100
AcDbLinetypeTableRecord
2
BYBLOCK
70
0
0
LTYPE
5
15
100
AcDbSymbolTableRecord
100
AcDbLinetypeTableRecord
2
BYLAYER
70
0
0
ENDTAB
0
TABLE
2
LAYER
5
2
100
AcDbSymbolTable
70
2
0
LAYER
5
50
100
AcDbSymbolTableRecord
100
AcDbLayerTableRecord
2
0
70
0
6
CONTINUOUS
0
ENDTAB
0
TABLE
2
STYLE
5
3
100
AcDbSymbolTable
70
1
0
STYLE
5
11
100
AcDbSymbolTableRecord
100
AcDbTextStyleTableRecord
2
STANDARD
70
0
0
ENDTAB
0
TABLE
2
VIEW
5
6
100
AcDbSymbolTable
70
0
0
ENDTAB
0
TABLE
2
UCS
5
7
100
AcDbSymbolTable
70
0
0
ENDTAB
0
TABLE
2
APPID
5
9
100
AcDbSymbolTable
70
2
0
APPID
5
12
100
AcDbSymbolTableRecord
100
AcDbRegAppTableRecord
2
ACAD
70
0
0
ENDTAB
0
TABLE
2
DIMSTYLE
5
A
100
AcDbSymbolTable
70
1
0
ENDTAB
0
TABLE
2
BLOCK_RECORD
5
1
100
AcDbSymbolTable
70
1
0
BLOCK_RECORD
5
1F
100
AcDbSymbolTableRecord
100
AcDbBlockTableRecord
2
*MODEL_SPACE
0
BLOCK_RECORD
5
1B
100
AcDbSymbolTableRecord
100
AcDbBlockTableRecord
2
*PAPER_SPACE
0
ENDTAB
0
ENDSEC
0
SECTION
2
BLOCKS
0
BLOCK
5
20
100
AcDbEntity
100
AcDbBlockBegin
2
*MODEL_SPACE
0
ENDBLK
5
21
100
AcDbEntity
100
AcDbBlockEnd
0
BLOCK
5
1C
100
AcDbEntity
100
AcDbBlockBegin
2
*PAPER_SPACE
0
ENDBLK
5
1D
100
AcDbEntity
100
AcDbBlockEnd
0
ENDSEC
0
SECTION
2
ENTITIES
0
LWPOLYLINE
5
100
100
AcDbEntity
8
OUTER_PROFILES
100
AcDbPolyline
90
18
70
1
43
0.0
10
6.8864443696738386e-13
20
361.66336161221267
42
0.41421356237309659
10
-4.9999999999993374
20
356.66336161221267
10
-4.9999999999999902
20
5.0000000000000089
42
0.41421356237309498
10
0
20
5.5511151231257827e-16
10
449.32692322443296
20
-4.2632564145606011e-13
42
0.41421356237309503
10
454.32692322443279
20
4.9999999999994316
10
454.3269232244329
20
144.99999999999937
42
0.41421356237308876
10
449.32692322443302
20
149.9999999999994
10
186.6635616122129
20
149.99999999999966
42
0.41421356237309087
10
181.66356161221299
20
144.99999999999966
10
181.66356161221285
20
137.29999999999967
10
167.3002000000003
20
137.29999999999976
10
167.30020000000036
20
151.66336161221233
10
292.66356138331275
20
151.66336161221187
42
0.41421356237309293
10
297.66356138331275
20
156.66336161221184
10
297.66356138331321
20
356.66336161221204
42
0.41421356237309503
10
292.66356138331321
20
361.66336161221204
10
181.66356161221316
20
361.66336161221227
0
CIRCLE
5
101
100
AcDbEntity
8
INTERIOR_PROFILES
100
AcDbCircle
10
-198.78365379427686
20
5.9999999999996589
30
0
40
1.8287999999999727
210
0
220
0
230
-1
0
CIRCLE
5
102
100
AcDbEntity
8
INTERIOR_PROFILES
100
AcDbCircle
10
-262.7836537942768
20
6.0000000000000142
30
0
40
1.8288000000000082
210
0
220
0
230
-1
0
CIRCLE
5
103
100
AcDbEntity
8
INTERIOR_PROFILES
100
AcDbCircle
10
-187.91803793958093
20
120.18421601344639
30
0
40
1.8288000000000082
210
0
220
0
230
-1
0
LWPOLYLINE
5
104
100
AcDbEntity
8
INTERIOR_PROFILES
100
AcDbPolyline
90
8
70
1
43
0.0
10
252.6635616122129
20
19.999999999999698
42
-0.41421356237309398
10
247.66356161221296
20
14.999999999999645
10
201.66356161221296
20
14.999999999999574
42
-0.41421356237310336
10
196.66356161221279
20
19.999999999999574
10
196.66356161221285
20
139.9999999999996
42
-0.41421356237309503
10
201.66356161221285
20
144.9999999999996
10
247.66356161221296
20
144.99999999999957
42
-0.41421356237309293
10
252.66356161221296
20
139.9999999999996
0
LWPOLYLINE
5
105
100
AcDbEntity
8
INTERIOR_PROFILES
100
AcDbPolyline
90
8
70
1
43
0.0
10
45.000000000000355
20
201.66336161221255
42
-0.41421356237309398
10
40.000000000000369
20
206.66336161221255
10
40.000000000000568
20
326.66336161221261
42
-0.41421356237309503
10
45.000000000000568
20
331.66336161221261
10
127.30020000000067
20
331.66336161221238
42
-0.41421356237309503
10
132.30020000000067
20
326.66336161221238
10
132.30020000000042
20
206.66336161221238
42
-0.41421356237309503
10
127.30020000000042
20
201.66336161221238
0
LWPOLYLINE
5
106
100
AcDbEntity
8
INTERIOR_PROFILES
100
AcDbPolyline
90
12
70
1
43
0.0
10
185.77356161221297
20
182.80536161221215
10
185.77356161221337
20
351.66376161221223
42
-0.41421356237309503
10
190.77356161221337
20
356.66376161221223
10
225.2235616122133
20
356.66376161221206
42
-0.41421356237309503
10
230.22356161221325
20
351.66376161221217
10
230.22356161221302
20
203.80536161221201
42
0.41421356237309503
10
235.22356161221302
20
198.80536161221201
10
287.66356161221285
20
198.80536161221198
42
-0.41421356237309503
10
292.6635616122129
20
193.8053616122119
10
292.66356161221279
20
182.80536161221193
42
-0.41421356237309503
10
287.66356161221279
20
177.8053616122119
10
190.77356161221297
20
177.8053616122121
42
-0.41421356237309709
0
LWPOLYLINE
5
107
100
AcDbEntity
8
INTERIOR_PROFILES
100
AcDbPolyline
90
8
70
1
43
0.0
10
185.77356161221297
20
166.48536161221202
42
-0.4142135623730992
10
190.77356161221303
20
171.48536161221202
10
287.66356161221285
20
171.48536161221116
42
-0.41421356237309087
10
292.66356161221279
20
166.48536161221116
10
292.66356161221273
20
162.48536161221114
42
-0.4142135623730992
10
287.66356161221267
20
157.48536161221114
10
190.77356161221286
20
157.48536161221233
42
-0.41421356237309087
10
185.77356161221292
20
162.48536161221233
0
CIRCLE
5
108
100
AcDbEntity
8
INTERIOR_PROFILES
100
AcDbCircle
10
-287.02692322443221
20
4.9999999999989342
30
0
40
1.3525500000000079
210
0
220
0
230
-1
0
CIRCLE
5
109
100
AcDbEntity
8
INTERIOR_PROFILES
100
AcDbCircle
10
-138.52200000000065
20
347.87536161221237
30
0
40
1.3525500000000079
210
0
220
0
230
-1
0
CIRCLE
5
110
100
AcDbEntity
8
INTERIOR_PROFILES
100
AcDbCircle
10
-6.4420000000006583
20
347.87536161221271
30
0
40
1.3525500000000079
210
0
220
0
230
-1
0
CIRCLE
5
111
100
AcDbEntity
8
INTERIOR_PROFILES
100
AcDbCircle
10
-449.32692322443387
20
145.00000000000011
30
0
40
1.3525500000000079
210
0
220
0
230
-1
0
CIRCLE
5
112
100
AcDbEntity
8
INTERIOR_PROFILES
100
AcDbCircle
10
-287.02692322443238
20
145.00000000000034
30
0
40
1.3525500000000079
210
0
220
0
230
-1
0
CIRCLE
5
113
100
AcDbEntity
8
INTERIOR_PROFILES
100
AcDbCircle
10
-449.32692322443279
20
4.9999999999992895
30
0
40
1.3525499999999369
210
0
220
0
230
-1
0
CIRCLE
5
114
100
AcDbEntity
8
INTERIOR_PROFILES
100
AcDbCircle
10
161.38200000000037
20
190.3953616122123
30
0
40
1.3525500000000079
210
-0
220
0
230
1
0
CIRCLE
5
115
100
AcDbEntity
8
INTERIOR_PROFILES
100
AcDbCircle
10
262.78365379427635
20
143.99999999999977
30
0
40
1.8288000000000082
210
0
220
0
230
1
0
CIRCLE
5
116
100
AcDbEntity
8
INTERIOR_PROFILES
100
AcDbCircle
10
-6.4420000000003519
20
190.39536161221258
30
0
40
1.3525500000000079
210
0
220
0
230
-1
0
CIRCLE
5
117
100
AcDbEntity
8
INTERIOR_PROFILES
100
AcDbCircle
10
-15.000000000000265
20
171.66336161221264
30
0
40
1.3525500000000079
210
0
220
0
230
-1
0
CIRCLE
5
118
100
AcDbEntity
8
INTERIOR_PROFILES
100
AcDbCircle
10
-147.30020000000061
20
341.66336161221284
30
0
40
1.3525499999999369
210
0
220
0
230
-1
0
CIRCLE
5
119
100
AcDbEntity
8
INTERIOR_PROFILES
100
AcDbCircle
10
-15.000000000000597
20
341.66336161221301
30
0
40
1.3525500000000079
210
0
220
0
230
-1
0
CIRCLE
5
120
100
AcDbEntity
8
INTERIOR_PROFILES
100
AcDbCircle
10
-147.3002000000003
20
171.66336161221238
30
0
40
1.3525499999999724
210
0
220
0
230
-1
0
CIRCLE
5
121
100
AcDbEntity
8
INTERIOR_PROFILES
100
AcDbCircle
10
-81.150100000000279
20
171.66336161221238
30
0
40
7.9374999999999929
210
0
220
0
230
-1
0
LINE
5
122
100
AcDbEntity
8
BEND
100
AcDbLine
10
274.8452424183227
20
149.99999999999969
30
2.0931113675750427e-11
11
274.84524241832264
21
-3.5527136788005009e-13
31
2.0625862595109734e-11
0
LINE
5
123
100
AcDbEntity
8
BEND
100
AcDbLine
10
174.48188080610666
20
137.29999999999967
30
1.5630879177886081e-11
11
174.48188080610637
21
-2.1316282072803006e-13
31
1.5357125689076047e-11
0
LINE
5
124
100
AcDbEntity
8
BEND
100
AcDbLine
10
-4.9999999999997176
20
144.48168080610634
30
-1.9324496108018038e-13
11
167.3002000000003
21
144.48168080610603
31
1.495354398044475e-11
0
LINE
5
125
100
AcDbEntity
8
BEND
100
AcDbLine
10
174.48188080610657
20
151.66336161221227
30
1.554872267406381e-11
11
174.48188080610694
21
361.66336161221233
31
1.5564265796408598e-11
0
LINE
5
126
100
AcDbEntity
8
BEND_EXTENT
100
AcDbLine
10
282.02692322443289
20
-3.5527136788005009e-13
30
2.0801020177187321e-11
11
282.02692322443312
21
149.99999999999969
31
2.1098559947786882e-11
0
LINE
5
127
100
AcDbEntity
8
BEND_EXTENT
100
AcDbLine
10
267.66356161221279
20
-4.2632564145606011e-13
30
2.0448247462316143e-11
11
267.66356161221302
21
149.9999999999996
31
2.07324645566202e-11
0
LINE
5
128
100
AcDbEntity
8
BEND_EXTENT
100
AcDbLine
10
181.66356161221285
20
137.29999999999967
30
1.6224709392580388e-11
11
181.66356161221285
21
-2.1316282072803006e-13
31
1.6082600845428371e-11
0
LINE
5
129
100
AcDbEntity
8
BEND_EXTENT
100
AcDbLine
10
167.30020000000002
20
-3.5527136788005009e-13
30
1.471286384000119e-11
11
167.3002000000003
21
137.29999999999976
31
1.4997080934305253e-11
0
LINE
5
130
100
AcDbEntity
8
BEND_EXTENT
100
AcDbLine
10
167.3002000000003
20
137.29999999999976
30
1.4997080934305253e-11
11
-4.9999999999997158
21
137.30000000000007
31
-1.5549737824292685e-13
0
LINE
5
131
100
AcDbEntity
8
BEND_EXTENT
100
AcDbLine
10
-4.9999999999997389
20
151.66336161221264
30
-1.9102451503093196e-13
11
167.30020000000036
21
151.66336161221233
31
1.4961553797517251e-11
0
LINE
5
132
100
AcDbEntity
8
BEND_EXTENT
100
AcDbLine
10
167.30020000000036
20
151.66336161221233
30
1.4961553797517251e-11
11
167.30020000000076
21
361.66336161221233
31
1.4961553797517283e-11
0
LINE
5
133
100
AcDbEntity
8
BEND_EXTENT
100
AcDbLine
10
181.66356161221316
20
361.66336161221227
30
1.6224709392580417e-11
11
181.66356161221276
21
151.66336161221216
31
1.6295763666156392e-11
0
ENDSEC
0
SECTION
2
OBJECTS
0
DICTIONARY
5
C
100
AcDbDictionary
3
ACAD_GROUP
350
D
3
ACAD_MLINESTYLE
350
17
0
DICTIONARY
5
D
100
AcDbDictionary
0
DICTIONARY
5
1A
330
C
100
AcDbDictionary
0
DICTIONARY
5
17
100
AcDbDictionary
0
ENDSEC
0
EOF
